<svg width="48" height="48" viewBox="0 0 48 48" fill="none" xmlns="http://www.w3.org/2000/svg">
<path d="M16.9387 10.0613C16.7994 9.9219 16.6888 9.75645 16.6134 9.57436C16.538 9.39227 16.4991 9.19711 16.4991 9.00002C16.4991 8.80293 16.538 8.60776 16.6134 8.42567C16.6888 8.24358 16.7994 8.07813 16.9387 7.93877C17.0781 7.7994 17.2435 7.68885 17.4256 7.61343C17.6077 7.53801 17.8029 7.49918 18 7.49918C18.1971 7.49918 18.3922 7.53801 18.5743 7.61343C18.7564 7.68885 18.9219 7.7994 19.0612 7.93877L34.0612 22.9388C34.2007 23.0781 34.3113 23.2435 34.3868 23.4256C34.4623 23.6077 34.5012 23.8029 34.5012 24C34.5012 24.1971 34.4623 24.3923 34.3868 24.5744C34.3113 24.7565 34.2007 24.922 34.0612 25.0613L19.0612 40.0613C18.7798 40.3427 18.398 40.5009 18 40.5009C17.6019 40.5009 17.2202 40.3427 16.9387 40.0613C16.6573 39.7798 16.4991 39.3981 16.4991 39C16.4991 38.602 16.6573 38.2202 16.9387 37.9388L30.8794 24L16.9387 10.0613Z" fill="#F8F9FB"/>
</svg>
