<svg width="48" height="48" viewBox="0 0 48 48" fill="none" xmlns="http://www.w3.org/2000/svg">
<path d="M31.0612 37.9387C31.2006 38.0781 31.3112 38.2435 31.3866 38.4256C31.462 38.6077 31.5008 38.8029 31.5008 39C31.5008 39.1971 31.462 39.3922 31.3866 39.5743C31.3112 39.7564 31.2006 39.9219 31.0612 40.0612C30.9219 40.2006 30.7564 40.3111 30.5743 40.3866C30.3922 40.462 30.1971 40.5008 30 40.5008C29.8029 40.5008 29.6077 40.462 29.4256 40.3866C29.2436 40.3111 29.0781 40.2006 28.9387 40.0612L13.9387 25.0612C13.7993 24.9219 13.6886 24.7565 13.6132 24.5744C13.5377 24.3923 13.4988 24.1971 13.4988 24C13.4988 23.8029 13.5377 23.6077 13.6132 23.4256C13.6886 23.2435 13.7993 23.078 13.9387 22.9387L28.9387 7.93873C29.2202 7.65727 29.6019 7.49915 30 7.49915C30.398 7.49915 30.7798 7.65727 31.0612 7.93873C31.3427 8.22019 31.5008 8.60193 31.5008 8.99998C31.5008 9.39803 31.3427 9.77977 31.0612 10.0612L17.1206 24L31.0612 37.9387Z" fill="#F8F9FB"/>
</svg>
